<mxfile host="app.diagrams.net" modified="2024-01-17T20:59:27.645Z" agent="Mozilla/5.0 (Windows NT 10.0; Win64; x64) AppleWebKit/537.36 (KHTML, like Gecko) Chrome/120.0.0.0 Safari/537.36" version="22.1.19" etag="O2BRV0qwuvPfseG6-x8V" type="github">
  <diagram name="PÃ¡gina-1" id="zxCVs5SGxwuc_AOnz3UE">
    <mxGraphModel>
      <root>
        <mxCell id="0" />
        <mxCell id="1" parent="0" />
      </root>
    </mxGraphModel>
  </diagram>
</mxfile>
